<svg xmlns="http://www.w3.org/2000/svg" xmlns:xlink="http://www.w3.org/1999/xlink" viewBox="0 0 154.5 154.5" height="154.5" width="154.5" data-background-color="#282634" preserveAspectRatio="xMidYMid meet" id="tight-bounds"><g><svg/></g><g><svg viewBox="0 0 154.5 154.5" height="154.5" width="154.5"><g transform="matrix(1,0,0,1,49.059588908011875,47.746371)"><svg viewBox="0 0 56.38082218397626 59.00725799999999" height="59.00725799999999" width="56.38082218397626"><g><svg viewBox="0 0 56.38082218397626 59.00725799999999" height="59.00725799999999" width="56.38082218397626"><g><svg viewBox="0 0 56.38082218397626 59.00725799999999" height="59.00725799999999" width="56.38082218397626"><g id="textblocktransform"><svg viewBox="0 0 56.38082218397626 59.00725799999999" height="59.00725799999999" width="56.38082218397626" id="textblock"><g><svg viewBox="0 0 56.38082218397626 59.00725799999999" height="59.00725799999999" width="56.38082218397626"><g transform="matrix(1,0,0,1,0,0)"><svg width="56.38082218397626" viewBox="1.149999976158142 -33.70000076293945 32.19999694824219 33.70000076293945" height="59.00725799999999" data-palette-color="#ff4057"><path d="M13.45-14.3L13.45-14.3 13.1-13.1 21.2-13.1 20.85-14.3Q19.4-19.2 18.48-22.65 17.55-26.1 17.35-27.1L17.35-27.1 17.15-28.1Q16.75-25.35 13.45-14.3ZM11.25-6.9L9.2 0 1.15 0 12.4-33.7 22.1-33.7 33.35 0 25.1 0 23.05-6.9 11.25-6.9Z" opacity="1" transform="matrix(1,0,0,1,0,0)" fill="#ffffff" class="wordmark-text-0" data-fill-palette-color="primary" id="text-0"/></svg></g></svg></g></svg></g></svg></g><g/></svg></g></svg></g><g><path d="M44.208 33.816A28.19 28.19 0 0 1 110.292 33.816L104.971 33.816A22.869 22.869 0 0 0 49.529 33.816L44.208 33.816M44.208 120.684A28.19 28.19 0 0 0 110.292 120.684L104.971 120.684A22.869 22.869 0 0 1 49.529 120.684L44.208 120.684" fill="#ffffff" stroke="transparent" data-fill-palette-color="tertiary"/></g></svg></g><defs/></svg>